<svg xmlns="http://www.w3.org/2000/svg" viewBox="0 0 1000 212.52" width="1000" height="212.52"><defs><style>.cls-1{fill:#018fdc;}.cls-2{fill:#030303;}</style></defs><title>Asset 1</title><g id="Layer_2" data-name="Layer 2"><g id="Layer_1-2" data-name="Layer 1"><path class="cls-1" d="M0,16.52C4.28,3.54,13.79-.09,26.67,0,77.82.35,129,.13,180.11.16c4.14,0,8.28,0,12.22,1.82,7.35,3.38,11.6,8.92,11.63,17.07q.18,53,.08,106c0,11.86-8.43,19.32-21.38,19.37-26.16.09-52.31,0-78.47,0h-5L51,187.71v-43.3c-8.13,0-15.6-.43-23,.09-13.07.92-23.15-2.79-28-16Z"/><path class="cls-1" d="M203,212.52q-22.11-20.16-44.2-40.35c-2-1.86-4.31-2.08-6.88-2.14-12.3-.3-24.66,1-36.91-.82-8.65-1.31-14.42-8.26-13.64-16.79h20.26c22.48,0,45-.44,67.45.19,10.82.31,23-9.62,22.59-22.56-.86-27.29-.32-54.62-.29-81.93,0-1.94-.46-4,1.12-6.32,8.95.17,18.26-1.24,27.41.76s14.75,9.23,14.77,18.75q.09,45.22,0,90.43c0,10.11-6.24,16.79-16.4,17.83-9.47,1-19,.26-28.45.49-1.78,0-3.65-.46-5.83.88v41.56Z"/><path class="cls-2" d="M1000,178.52c-7.66-1.52-15.47.09-23.58-.91V167.8c-1.9-.28-2.29,1.09-3,1.82-15.67,15.63-40.45,13.79-53.66-4-13-17.52-13.06-50.16-.48-68S959.85,76,975.9,95.48V49.65c8.36-1.53,16.33.47,24.1-1.14Zm-23.68-47.09c0-4.49-.15-9,.06-13.47a8.17,8.17,0,0,0-2.82-6.57c-12.85-12.74-32.4-8.07-37.91,9.11a34.7,34.7,0,0,0-.1,21.11c5,16.39,22.19,21.78,35.83,11.36,3.37-2.58,5.5-5.47,5-10.08A111.21,111.21,0,0,1,976.32,131.43Z"/><path class="cls-2" d="M712.69,65.2l-14.08,20c-1.77.33-2.36-1.17-3.31-1.94C685.89,75.57,675,71.94,663,71.6a22.46,22.46,0,0,0-11.58,2.51,11,11,0,0,0-6.15,10.13c0,4.19,2.86,6.56,6.28,8.28,6,3,12.55,4.33,19,6,7.75,1.95,15.47,4,22.78,7.27,14.2,6.43,22.37,17.07,22.23,33-.14,16.34-6.89,28.89-22.08,36.12-24.17,11.51-60.82,4.55-79-15.29l13.87-21c2.07.43,2.93,2.22,4.24,3.37,10.87,9.57,23.41,14.39,38,13.61,4.91-.27,9.58-1.4,13.5-4.54,7-5.59,6.4-14.08-1.39-18.44-6.91-3.88-14.74-5.08-22.29-7a135.24,135.24,0,0,1-21.28-7c-27.71-12.31-25.21-47-6.85-61.14,11.72-9,25.08-10.9,39.2-10C687.11,48.54,700.92,53.92,712.69,65.2Z"/><path class="cls-2" d="M808.73,139.28H743.06c1.59,8.66,5.71,15,13.46,18.18,12.81,5.29,24.38,1.85,35.5-6.28l10.41,16c-9,8.45-19.95,11.77-31.77,12.87-25.69,2.39-46.33-12.85-51.29-37.89-5.15-26,8.5-51,31.64-58,27.36-8.21,52.63,8.62,56.93,37.93A79.86,79.86,0,0,1,808.73,139.28Zm-22.86-17.35c-.82-11.85-9.33-19.43-21.38-19.44-11.88,0-20.47,7.78-21.19,19.44Z"/><path class="cls-2" d="M900.25,177.65H877.12c0-9.7,0-19.16,0-28.61,0-8.83,0-17.65,0-26.48-.07-16-11.45-23-26-16a27.46,27.46,0,0,0-10.24,8.69v62.5h-23v-93h22.83V94.84c2.11.42,2.59-1.15,3.47-1.94,9.85-8.72,21.35-12,34.25-10.18,13.36,1.88,21.77,11.07,22.16,26,.59,22.63.19,45.29.19,67.94C900.78,176.94,900.49,177.23,900.25,177.65Z"/><path class="cls-2" d="M383.61,70.09l-8.06,5.49c-.4-.15-.83-.18-1-.4-21.2-28.92-67.86-22.29-81.76,14.33-7.85,20.69-6.46,41,6.23,59.6,17.66,25.9,56.36,28.75,75.23,3.2.18-.25.54-.36,1.15-.76l8.45,5.46c-14.65,22-45.15,29.52-70.6,17.63-24.84-11.61-38.91-38.54-35.74-68.39,3.11-29.3,19.49-50.44,45.4-57,23-5.78,43.24-.75,59,18a17.92,17.92,0,0,1,1.21,1.58A6.42,6.42,0,0,1,383.61,70.09Z"/><path class="cls-2" d="M541.17,49.48a27.79,27.79,0,0,1,9.36-.11v88.38l52-53.18h13.06l-41.16,42.14,40.82,51H602.19l-34.66-43.47L550.79,151v26.3c-3.3.95-6.37.65-9.62.28Z"/><path class="cls-2" d="M527.88,98.3l-6.71,6.29a24.68,24.68,0,0,0-1.65-2.47,30.19,30.19,0,0,0-47.22,1.44c-11.16,14.63-11.14,40.06-.29,55,11.24,15.43,36.11,17.38,47.81,1.33.38-.52.87-1,1.67-1.86l6.39,6c-13.67,20.26-44.51,21.8-61.36,3.29-17.11-18.81-17.31-52.75-.41-71.73C482.84,76.76,514,78,527.88,98.3Z"/><path class="cls-2" d="M396.58,49.47c2.89-.75,5.83-.3,9.08-.29V177.53c-2.86.71-5.8.4-9.08.17Z"/><path class="cls-2" d="M436.81,177.75h-9v-93h9Z"/><path class="cls-2" d="M432.17,69.94a7.69,7.69,0,0,1,.48-15.36,7.69,7.69,0,0,1,7.06,7.68A7.59,7.59,0,0,1,432.17,69.94Z"/></g></g></svg>